<svg width="65" height="65" viewBox="0 0 65 65" fill="none" xmlns="http://www.w3.org/2000/svg">
<path d="M17.129 5.35753C16.1091 5.37149 13.6509 5.77939 10.8545 6.23262L11.8198 9.02901C17.3979 8.28342 17.3649 8.13349 17.7727 8.70249C21.8529 14.3949 25.3394 19.8932 27.253 25.8441C31.3921 26.15 36.3344 27.0044 39.7338 28.8722C44.0607 24.2587 51.118 21.7867 56.9355 19.7695C58.4789 19.2343 60.1406 20.709 62.3272 21.0477L62.9427 18.8559C62.3242 17.9908 59.4125 16.7502 58.2025 16.7335C57.6903 16.7264 56.2353 17.1334 55.7944 17.2846C48.5606 18.6814 42.6716 18.9581 35.2027 21.4201C30.4765 16.6068 25.5282 11.8461 19.85 6.9725C18.6772 5.96576 18.6197 5.33722 17.129 5.35753ZM27.7766 28.1605C25.887 31.4841 24.6875 32.2864 22.0995 34.0219C19.8255 33.4278 17.5566 32.8222 14.8939 33.135C12.2257 32.7789 11.1378 33.7666 7.90053 34.8997C6.91956 34.5696 5.74728 35.0262 4.99356 35.3475C3.75488 35.9793 2.28413 36.9068 2.61116 38.4691C3.11249 40.0829 5.17853 39.5987 6.12204 39.1931C6.91487 38.8148 7.65247 38.0788 8.19862 37.4995C10.9129 37.5718 12.1182 37.4833 14.9256 36.2412C17.0512 37.1046 19.7393 37.4479 22.1486 37.5071C22.2972 37.3965 22.4499 37.2917 22.6065 37.1928C24 36.3168 25.6898 35.9821 27.2166 36.5872C28.7432 37.1926 29.7231 38.5859 30.1077 40.1668C30.3348 41.1002 30.3719 42.1163 30.2164 43.1552C30.8194 44.8472 31.2777 46.4015 32.3626 48.476C31.7034 51.368 31.9127 54.2248 32.0755 57.1522L29.1833 58.2377L28.6324 59.6429H37.5461L36.5131 58.1318L34.435 57.0836C34.8798 54.1628 35.6573 51.2755 35.228 48.2672C35.2978 46.0196 34.5565 43.7721 34.1174 41.5246C36.822 38.1934 35.4344 35.8446 37.3293 32.2206C37.6032 31.6979 37.9092 31.1925 38.2454 30.7075C34.7716 29.2679 31.3283 28.3159 27.7766 28.1605ZM25.4724 38.5506C24.9577 38.5658 24.4006 38.7486 23.823 39.1117C22.899 39.6926 21.997 40.7373 21.4414 42.0904C20.8858 43.4435 20.7973 44.811 21.0524 45.8593C21.3074 46.9075 21.8509 47.5875 22.5805 47.8767C23.3101 48.1659 24.1816 48.0472 25.1056 47.4664C26.0298 46.8854 26.9319 45.8405 27.4876 44.4874C28.0432 43.1343 28.1314 41.7671 27.8764 40.7187C27.6213 39.6703 27.0779 38.9903 26.3485 38.7011C26.0749 38.5926 25.7812 38.5414 25.4725 38.5506H25.4724Z" fill="#3464DE"/>
</svg>
