<svg width="48" height="48" viewBox="0 0 48 48" fill="none" xmlns="http://www.w3.org/2000/svg">
<path fill-rule="evenodd" clip-rule="evenodd" d="M37 5.5C36.5404 5.5 36.0852 5.59053 35.6606 5.76642C35.236 5.94231 34.8501 6.20012 34.5251 6.52513C34.2001 6.85013 33.9423 7.23597 33.7664 7.66061C33.5905 8.08525 33.5 8.54037 33.5 9C33.5 9.45963 33.5905 9.91475 33.7664 10.3394C33.9423 10.764 34.2001 11.1499 34.5251 11.4749C34.8501 11.7999 35.236 12.0577 35.6606 12.2336C36.0852 12.4095 36.5404 12.5 37 12.5C37.9283 12.5 38.8185 12.1313 39.4749 11.4749C40.1312 10.8185 40.5 9.92826 40.5 9C40.5 8.07174 40.1312 7.1815 39.4749 6.52513C38.8185 5.86875 37.9283 5.5 37 5.5ZM30.5 9C30.5 7.27609 31.1848 5.62279 32.4038 4.40381C33.6228 3.18482 35.2761 2.5 37 2.5C38.7239 2.5 40.3772 3.18482 41.5962 4.40381C42.8152 5.62279 43.5 7.27609 43.5 9C43.5 10.7239 42.8152 12.3772 41.5962 13.5962C40.3772 14.8152 38.7239 15.5 37 15.5C35.2761 15.5 33.6228 14.8152 32.4038 13.5962C31.1848 12.3772 30.5 10.7239 30.5 9ZM17.944 11.62C18.8376 11.2245 19.8006 11.01 20.7776 10.9887C21.7545 10.9674 22.726 11.1398 23.636 11.496C28.772 13.496 30.012 20.196 25.936 23.904L23.856 25.796L23.736 25.904C23.465 26.1597 23.2546 26.4728 23.1201 26.8204C22.9857 27.1679 22.9307 27.5411 22.959 27.9126C22.9874 28.2842 23.0985 28.6447 23.2841 28.9678C23.4698 29.2909 23.7253 29.5684 24.032 29.78L24.04 29.784L24.29 29.976C26.1388 31.4074 27.6397 33.2385 28.6805 35.3322C29.7213 37.4259 30.275 39.728 30.3 42.066V44C30.3 44.3978 30.142 44.7794 29.8607 45.0607C29.5794 45.342 29.1978 45.5 28.8 45.5C28.4022 45.5 28.0206 45.342 27.7393 45.0607C27.458 44.7794 27.3 44.3978 27.3 44V42.098C27.2796 40.1629 26.8101 38.2589 25.9285 36.5361C25.047 34.8133 23.7775 33.3187 22.22 32.17L22.208 32.16L22.046 32.036C21.413 31.5361 20.8976 30.9032 20.5365 30.1819C20.1753 29.4607 19.9772 28.6689 19.9562 27.8625C19.9352 27.0562 20.0918 26.2551 20.415 25.5161C20.7381 24.777 21.2198 24.1181 21.826 23.586L21.836 23.576L23.916 21.684C26.346 19.476 25.606 15.484 22.546 14.29C22.0041 14.0775 21.4255 13.9746 20.8436 13.9873C20.2617 14 19.6881 14.1281 19.156 14.364L18.112 14.824C17.022 15.306 16.518 15.528 16.028 15.772C15.2024 16.1809 14.4011 16.637 13.628 17.138C13.168 17.434 12.718 17.754 11.748 18.446L8.87 20.494C8.70952 20.6082 8.52812 20.6898 8.33614 20.7339C8.14415 20.7781 7.94536 20.784 7.7511 20.7513C7.55684 20.7186 7.37092 20.648 7.20395 20.5434C7.03699 20.4389 6.89225 20.3025 6.778 20.142C6.66375 19.9815 6.58223 19.8001 6.53808 19.6081C6.49394 19.4162 6.48805 19.2174 6.52073 19.0231C6.55342 18.8288 6.62405 18.6429 6.72859 18.476C6.83312 18.309 6.96952 18.1642 7.13 18.05L10.042 15.98C10.97 15.318 11.476 14.958 11.998 14.62C12.8687 14.0587 13.7673 13.5473 14.694 13.086C15.252 12.81 15.82 12.56 16.864 12.1L17.944 11.62ZM30.544 23.636C30.5917 23.4447 30.6766 23.2648 30.7939 23.1063C30.9113 22.9479 31.0586 22.8142 31.2277 22.7128C31.3967 22.6114 31.5841 22.5443 31.779 22.5153C31.974 22.4863 32.1728 22.4961 32.364 22.544C34.7513 23.1405 37.2487 23.1405 39.636 22.544C40.0222 22.4475 40.4308 22.5083 40.7722 22.7131C41.1135 22.9179 41.3595 23.2498 41.456 23.636C41.5525 24.0222 41.4917 24.4308 41.2869 24.7722C41.0821 25.1135 40.7502 25.3595 40.364 25.456C37.4987 26.172 34.5013 26.172 31.636 25.456C31.4447 25.4083 31.2648 25.3234 31.1063 25.2061C30.9479 25.0887 30.8142 24.9414 30.7128 24.7723C30.6114 24.6033 30.5443 24.4159 30.5153 24.221C30.4863 24.026 30.4961 23.8272 30.544 23.636ZM18.96 32.848C19.2654 33.1027 19.4572 33.4682 19.4932 33.8643C19.5292 34.2603 19.4065 34.6544 19.152 34.96L18.632 35.582C17.0891 37.4342 15.1578 38.9245 12.9748 39.9472C10.7918 40.9699 8.41066 41.5 6 41.5C5.60218 41.5 5.22064 41.342 4.93934 41.0607C4.65804 40.7794 4.5 40.3978 4.5 40C4.5 39.6022 4.65804 39.2206 4.93934 38.9393C5.22064 38.658 5.60218 38.5 6 38.5C7.97094 38.5002 9.9178 38.0669 11.7026 37.2308C13.4874 36.3948 15.0665 35.1764 16.328 33.662L16.848 33.04C17.1027 32.7346 17.4682 32.5428 17.8643 32.5068C18.2603 32.4708 18.6544 32.5935 18.96 32.848Z" fill="#3464DE"/>
</svg>
