<svg width="329" height="78" viewBox="0 0 329 78" fill="none" xmlns="http://www.w3.org/2000/svg">
<path d="M73.7293 45.0268H70.7117V14.5967H73.7293L84.8218 41.4143L95.9143 14.5967H98.9744V45.0268H95.9569V30.5768C95.9569 25.2643 96.0419 22.9267 96.2119 20.8442L86.3093 45.0268H83.3768L73.4743 20.9717C73.6443 22.1192 73.7293 25.4768 73.7293 30.1093V45.0268ZM104.281 34.7418C104.281 28.4518 108.701 23.9042 114.736 23.9042C120.771 23.9042 125.191 28.4518 125.191 34.7418C125.191 40.9893 120.771 45.5368 114.736 45.5368C108.701 45.5368 104.281 40.9893 104.281 34.7418ZM107.256 34.6993C107.256 39.5443 110.316 42.9018 114.736 42.9018C119.114 42.9018 122.216 39.5443 122.216 34.6993C122.216 29.9393 119.114 26.5393 114.736 26.5393C110.316 26.5393 107.256 29.9393 107.256 34.6993ZM134.706 45.0268L126.291 24.4567H129.436L134.749 37.7168C135.301 39.2043 135.854 40.6068 136.236 41.9668C136.619 40.5643 137.171 39.2043 137.766 37.7168L143.164 24.4567H146.181L137.639 45.0268H134.706ZM154.632 45.5368C150.254 45.5368 147.662 43.0718 147.662 39.4593C147.662 35.6768 150.552 33.2968 155.355 32.9143L162.155 32.3618V31.6818C162.155 27.6443 159.732 26.3693 156.715 26.3693C153.145 26.3693 151.019 27.9843 151.019 30.7468H148.342C148.342 26.5818 151.742 23.9042 156.8 23.9042C161.56 23.9042 165.045 26.2843 165.045 31.7243V45.0268H162.58L162.197 41.4143C160.922 44.0068 158.117 45.5368 154.632 45.5368ZM155.312 43.1568C159.647 43.1568 162.155 40.1393 162.155 35.6768V34.5718L156.077 35.0393C152.21 35.3793 150.637 37.0793 150.637 39.3743C150.637 41.8818 152.507 43.1568 155.312 43.1568ZM177.814 45.0268H171.142V13.5767H177.814L187.164 37.0368L196.557 13.5767H203.314V45.0268H196.642V38.4393C196.642 31.6393 196.642 30.1518 196.982 27.8143L190.309 45.0268H184.019L177.389 27.8143C177.772 30.1518 177.814 32.7868 177.814 36.2293V45.0268ZM218.918 45.5793C212.5 45.5793 207.91 40.9043 207.91 34.3593C207.91 27.7293 212.372 23.0967 218.79 23.0967C225.463 23.0967 229.628 27.4743 229.628 34.4018V36.0593L214.2 36.1443C214.583 38.9493 216.155 40.2668 219.045 40.2668C221.51 40.2668 223.253 39.3743 223.72 37.8443H229.713C228.948 42.5618 224.74 45.5793 218.918 45.5793ZM218.833 28.4093C216.24 28.4093 214.795 29.5568 214.285 32.1068H223.125C223.125 29.8543 221.468 28.4093 218.833 28.4093ZM240.048 45.0268H233.503V23.7767H239.666L240.091 25.9868C241.408 24.1592 243.831 23.0967 246.593 23.0967C251.651 23.0967 254.583 26.3268 254.583 31.8943V45.0268H248.038V33.4668C248.038 30.7893 246.551 29.0468 244.298 29.0468C241.706 29.0468 240.048 30.7468 240.048 33.3818V45.0268ZM267.862 45.0268H261.317V29.2168H257.28V23.7767H261.317V17.1892H267.862V23.7767H271.9V29.2168H267.862V45.0268ZM284.494 45.5793C278.076 45.5793 273.486 40.9043 273.486 34.3593C273.486 27.7293 277.949 23.0967 284.366 23.0967C291.039 23.0967 295.204 27.4743 295.204 34.4018V36.0593L279.776 36.1443C280.159 38.9493 281.731 40.2668 284.621 40.2668C287.086 40.2668 288.829 39.3743 289.297 37.8443H295.289C294.524 42.5618 290.317 45.5793 284.494 45.5793ZM284.409 28.4093C281.816 28.4093 280.371 29.5568 279.861 32.1068H288.702C288.702 29.8543 287.044 28.4093 284.409 28.4093Z" fill="black"/>
<path d="M73.1481 62.006H70.3571V60H75.2937V72.7513H73.1481V62.006ZM85.6106 60.1569C86.4363 60.1569 87.0468 60.3663 87.4422 60.7849C87.8492 61.2036 88.0527 61.7676 88.0527 62.477V66.2448H86.9014L86.6398 65.3029C86.3956 65.6285 86.0932 65.8843 85.7327 66.0704C85.3838 66.2565 85.0001 66.3495 84.5814 66.3495C84.1744 66.3495 83.8139 66.2797 83.4999 66.1402C83.1859 66.0006 82.9417 65.7913 82.7673 65.5122C82.6045 65.2331 82.5231 64.8784 82.5231 64.4481C82.5231 63.9946 82.6393 63.6341 82.8719 63.3666C83.1045 63.0875 83.4418 62.884 83.8837 62.7561C84.3372 62.6165 84.878 62.5351 85.5059 62.5119L86.3432 62.477V62.3374C86.3432 62.0699 86.2502 61.8606 86.0641 61.7094C85.8897 61.5583 85.6222 61.4827 85.2617 61.4827C85.0059 61.4827 84.7152 61.5292 84.3895 61.6222C84.0755 61.7153 83.7499 61.8432 83.4127 62.006L82.8545 60.8547C83.1103 60.7268 83.3778 60.6105 83.6569 60.5058C83.936 60.4012 84.2384 60.3198 84.564 60.2616C84.8896 60.1918 85.2385 60.1569 85.6106 60.1569ZM85.5059 63.541C84.9943 63.5759 84.657 63.6864 84.4942 63.8725C84.343 64.0469 84.2674 64.233 84.2674 64.4307C84.2674 64.6516 84.3314 64.8144 84.4593 64.9191C84.5872 65.0121 84.7442 65.0586 84.9303 65.0586C85.3722 65.0586 85.7153 64.9424 85.9595 64.7098C86.2153 64.4656 86.3432 64.1632 86.3432 63.8027V63.4887L85.5059 63.541ZM113.649 72.7513H105.729V60H113.649V62.0583H107.962V65.3377H113.056V67.3089H107.962V70.693H113.649V72.7513ZM126.065 72.7513H121.477V60H125.943C129.71 60 132.31 62.5991 132.31 66.4018C132.31 70.1522 129.763 72.7513 126.065 72.7513ZM125.733 62.0583H123.71V70.693H125.855C128.402 70.693 129.955 69.0533 129.955 66.4018C129.955 63.698 128.367 62.0583 125.733 62.0583ZM142.03 60V72.7513H139.797V60H142.03ZM154.381 76.1703V75.1935C154.782 75.3854 155.113 75.5075 155.549 75.5075C156.143 75.5075 156.474 75.2458 156.474 74.8446C156.474 74.4608 156.195 74.2515 155.724 74.2515C155.392 74.2515 155.148 74.3038 154.869 74.4085L154.66 73.8154L155.078 72.9432C151.694 72.6816 149.531 70.1697 149.531 66.3844C149.531 62.4246 152.026 59.7906 155.759 59.7906C158.777 59.7906 161.027 61.5525 161.463 64.2911H159.108C158.672 62.8084 157.398 61.9362 155.706 61.9362C153.352 61.9362 151.869 63.6457 151.869 66.3669C151.869 69.0707 153.369 70.8151 155.706 70.8151C157.433 70.8151 158.759 69.908 159.178 68.4951H161.498C161.027 71.0942 158.829 72.8386 155.968 72.9607L155.672 73.5538C155.846 73.5014 156.038 73.4665 156.247 73.4665C156.927 73.4665 157.643 73.8677 157.643 74.8271C157.643 75.9087 156.753 76.4669 155.672 76.4669C155.131 76.4669 154.747 76.3622 154.381 76.1703ZM171.188 58.9533H169.932C169.775 57.4532 170.438 56.4938 171.537 56.4938C172.689 56.4938 173.282 57.5229 174.014 57.5229C174.45 57.5229 174.625 57.1217 174.625 56.4938H175.881C176.02 58.1509 175.34 58.9533 174.224 58.9533C173.02 58.9533 172.41 57.9241 171.782 57.9241C171.363 57.9241 171.188 58.3079 171.188 58.9533ZM169.462 72.7513H167.141L171.747 60H174.032L178.637 72.7513H176.282L175.253 69.8033H170.491L169.462 72.7513ZM172.601 63.8027L171.154 67.9194H174.607L173.142 63.8027C173.037 63.4713 172.915 63.0875 172.88 62.8258C172.828 63.0701 172.723 63.4538 172.601 63.8027ZM196.648 66.3669C196.648 70.2394 194.101 72.9607 190.438 72.9607C186.792 72.9607 184.281 70.2569 184.281 66.3669C184.281 62.4944 186.81 59.7732 190.456 59.7732C194.101 59.7732 196.648 62.477 196.648 66.3669ZM194.293 66.3669C194.293 63.6457 192.793 61.9188 190.456 61.9188C188.118 61.9188 186.618 63.6457 186.618 66.3669C186.618 69.0882 188.118 70.8151 190.456 70.8151C192.793 70.8151 194.293 69.0533 194.293 66.3669Z" fill="#212121"/>
<path d="M39.421 18.8534C40.1662 18.657 40.9408 18.5588 41.7448 18.5588C43.0636 18.5602 44.367 18.8427 45.568 19.3876C46.769 19.9325 47.84 20.7272 48.7096 21.7187C49.5792 22.7103 50.2273 23.8758 50.6109 25.1376C50.9944 26.3995 51.1045 27.7286 50.9338 29.0363C50.7631 30.344 50.3155 31.6003 49.6209 32.7214C48.9262 33.8425 48.0006 34.8025 46.9056 35.5376C45.8106 36.2726 44.5715 36.7658 43.2708 36.9841C41.9702 37.2024 40.638 37.1409 39.363 36.8036M39.421 18.8534L39.4256 18.5588C39.4292 16.2676 38.5848 14.0561 37.055 12.3505C35.5252 10.6448 33.4183 9.56556 31.1402 9.32076C28.8621 9.07596 26.574 9.68288 24.7167 11.0246C22.8594 12.3663 21.5644 14.3479 21.0811 16.5876M39.421 18.8534C39.3731 20.381 38.9485 21.8732 38.1849 23.1972M39.363 36.8036C39.4047 36.5253 39.4256 36.2416 39.4256 35.9525C39.4259 34.6159 38.9644 33.3203 38.1191 32.2849C37.2739 31.2495 36.0969 30.5379 34.7873 30.2706M39.363 36.8036C39.1589 38.1788 38.4675 39.4349 37.4147 40.3429C36.362 41.2509 35.018 41.7504 33.6277 41.7504H32.4682C30.0078 41.7504 27.6483 42.7277 25.9086 44.4674C24.1689 46.2071 23.1915 48.5667 23.1915 51.027M21.0811 16.5876C19.4863 16.1347 17.7993 16.1175 16.1957 16.5378C14.592 16.958 13.1302 17.8003 11.9625 18.9771C10.7947 20.1538 9.96366 21.622 9.55575 23.2288C9.14783 24.8357 9.17798 26.5225 9.64305 28.1138M21.0811 16.5876C23.4058 17.2459 25.3819 18.7851 26.5891 20.878M9.64305 28.1138C8.0383 28.5858 6.65958 29.6201 5.75506 31.0272C4.85055 32.4343 4.48307 34.1201 4.71991 35.776C4.95675 37.4319 5.78205 38.9471 7.04474 40.0443C8.30743 41.1414 9.92303 41.7471 11.5958 41.7504C13.0352 41.7511 14.4394 41.3054 15.6148 40.4747C16.7903 39.644 17.6792 38.4691 18.159 37.1121M9.64305 28.1138C9.85332 28.8358 10.1463 29.5161 10.5174 30.1546M27.4495 29.5609C26.2667 30.6996 24.2421 30.8967 22.512 29.925C20.7819 28.951 19.8983 27.1188 20.2578 25.5163" stroke="#3464DE" stroke-width="3.86365" stroke-linecap="round" stroke-linejoin="round"/>
</svg>
